:SAMPLES-PER-SECOND 30
:FULLY-SPECIFIED
:DEGREES
312
root  -21.2808 27.4752 1.83277 169.51 -78.0468 -172.054
RightUpLeg  -61.3844 -9.15796 4.16311
RightLeg  92.3066 1.45111 -14.8013
RightFoot  -25.8904 -0.121465 0.42132
RightToes  0.000482159 0.542163 -0.142577
Spine  51.6432 -4.14351 9.1675
Spine1  11.001 -2.61436 7.22815
HEad  38.4463 2.09625 3.79875
LeftShoulder1  2.83038 -9.8616 -14.2616
LeftArm  -52.9523 -51.8201 -0.606897
LeftForeArm  40.6041 -33.444 -5.10999
LeftHand  -0.25398 0.0180481 5.50724
RightShoulder  -0.0460576 -6.99994 -8.10488
RightArm  -72.9958 69.3457 -18.0972
RightForeArm  1.26098 19.8581 4.25771
RightHand  -7.76269 19.7708 -35.1266
LeftUpLeg  -59.6138 12.433 9.11085
LeftLeg  106.488 -2.2615 5.75543
LeftFoot  -16.8739 -0.331605 -8.90983
LeftToes  1.06244e-005 4.65856e-005 -8.18505e-006
313
root  -21.5767 26.9482 2.1268 166.568 -76.413 -170.032
RightUpLeg  -61.3026 -8.03686 4.08657
RightLeg  94.4315 1.95181 -14.1846
RightFoot  -26.7368 -0.0253803 1.15174
RightToes  0.000482159 0.542163 -0.142577
Spine  50.6505 -4.73275 10.3934
Spine1  11.4401 -2.5107 6.8559
HEad  39.8401 2.86496 4.00288
LeftShoulder1  3.04056 -10.2731 -15.2371
LeftArm  -50.5214 -48.7544 -1.82392
LeftForeArm  40.9248 -35.3382 -5.56067
LeftHand  -0.25398 0.0180481 5.50724
RightShoulder  -0.064706 -7.13745 -7.5745
RightArm  -70.0832 70.6135 -18.6692
RightForeArm  2.20174 22.8319 4.79845
RightHand  -7.6628 19.6445 -34.8714
LeftUpLeg  -56.7461 11.3815 11.5852
LeftLeg  114.113 -3.5032 6.56655
LeftFoot  -13.4382 -0.0618362 -7.72831
LeftToes  1.06244e-005 4.65856e-005 -8.18505e-006
314
root  -21.9372 26.2366 2.51998 161.556 -74.416 -165.612
RightUpLeg  -61.7912 -6.95352 4.71596
RightLeg  97.033 2.5229 -13.5327
RightFoot  -27.7347 0.0985294 1.99144
RightToes  0.000482159 0.542163 -0.142577
Spine  49.0759 -5.60622 12.556
Spine1  11.7624 -2.35965 6.6617
HEad  40.9113 3.99377 3.74931
LeftShoulder1  3.25368 -10.5662 -16.3934
LeftArm  -48.1584 -44.519 -3.49958
LeftForeArm  41.7612 -38.4368 -6.32814
LeftHand  -0.25398 0.0180481 5.50724
RightShoulder  -0.0797341 -7.23075 -7.164
RightArm  -67.0363 71.8024 -18.9711
RightForeArm  2.54792 25.8948 5.42323
RightHand  -7.65502 19.6495 -34.8318
LeftUpLeg  -52.481 10.3279 13.9335
LeftLeg  120.403 -2.75757 3.84419
LeftFoot  -8.16741 0.276726 -7.9307
LeftToes  1.06244e-005 4.65856e-005 -8.18505e-006
315
root  -22.3073 25.5317 2.89939 157.165 -72.7263 -161.619
RightUpLeg  -62.4274 -6.39226 5.34989
RightLeg  99.6595 3.01319 -12.7316
RightFoot  -28.6336 0.220776 2.73149
RightToes  0.000482159 0.542163 -0.142577
Spine  47.4027 -6.50255 14.4159
Spine1  12.1066 -2.43694 6.51932
HEad  40.9104 5.33569 3.60905
LeftShoulder1  3.31358 -10.3792 -17.1966
LeftArm  -46.682 -39.6973 -4.99775
LeftForeArm  43.1832 -42.499 -7.42078
LeftHand  -0.25398 0.0180481 5.50724
RightShoulder  -0.0823774 -7.20577 -7.06775
RightArm  -64.5958 72.3283 -19.1429
RightForeArm  2.32374 29.2896 6.24011
RightHand  -7.71574 19.6884 -35.0371
LeftUpLeg  -47.6902 9.68824 15.3621
LeftLeg  123.252 -0.443885 0.0978256
LeftFoot  -4.57942 0.625684 -10.0996
LeftToes  1.06244e-005 4.65856e-005 -8.18505e-006
316
root  -22.7029 25.0246 3.18436 154.547 -71.5766 -159.52
RightUpLeg  -62.4735 -6.26284 5.41489
RightLeg  101.803 3.26961 -11.7152
RightFoot  -29.3565 0.356927 3.50954
RightToes  0.000482159 0.542163 -0.142577
Spine  45.9953 -6.82779 14.8786
Spine1  12.3688 -2.6123 6.55991
HEad  40.0739 6.27393 3.53869
LeftShoulder1  3.4095 -10.2348 -18.2204
LeftArm  -46.0247 -34.6812 -5.463
LeftForeArm  44.666 -47.145 -8.87633
LeftHand  -0.25398 0.0180481 5.50724
RightShoulder  -0.0762136 -7.18618 -7.2443
RightArm  -62.3628 71.9581 -18.751
RightForeArm  2.24592 33.0758 7.2135
RightHand  -7.73437 19.5969 -35.2357
LeftUpLeg  -42.5566 9.98994 15.8095
LeftLeg  123.4 0.364992 -1.00801
LeftFoot  -6.2155 0.647677 -14.0282
LeftToes  1.06244e-005 4.65856e-005 -8.18505e-006
317
root  -23.139 24.6121 3.43573 152.657 -70.5028 -158.37
RightUpLeg  -62.0502 -6.29304 5.22611
RightLeg  103.671 3.39273 -10.6962
RightFoot  -29.985 0.509263 4.34371
RightToes  0.000482159 0.542163 -0.142577
Spine  44.8084 -6.77627 14.6081
Spine1  12.3625 -2.63914 6.23128
HEad  38.8938 6.78216 3.82418
LeftShoulder1  3.46728 -10.2061 -18.7313
LeftArm  -45.8627 -29.58 -5.65318
LeftForeArm  46.3644 -52.3199 -10.8519
LeftHand  -0.25398 0.0180481 5.50724
RightShoulder  -0.08128 -7.2616 -7.1398
RightArm  -60.3326 71.0225 -17.9384
RightForeArm  2.76082 36.7414 8.21342
RightHand  -7.68028 19.4005 -35.2662
LeftUpLeg  -37.043 11.0037 16.0696
LeftLeg  123.197 -0.297325 -0.0793989
LeftFoot  -12.6672 -0.127874 -17.5593
LeftToes  1.06244e-005 4.65856e-005 -8.18505e-006
318
root  -23.5708 24.0973 3.74669 150.148 -69.1391 -156.71
RightUpLeg  -61.7744 -6.45887 5.25155
RightLeg  105.786 3.49815 -9.6803
RightFoot  -30.5011 0.627897 4.94909
RightToes  0.000482159 0.542163 -0.142577
Spine  43.6228 -6.6969 14.6391
Spine1  12.1698 -2.51383 5.70822
HEad  37.4921 7.23585 4.52463
LeftShoulder1  3.42781 -10.1311 -18.5686
LeftArm  -46.0576 -24.605 -5.92261
LeftForeArm  48.8692 -57.9947 -13.6311
LeftHand  -0.25398 0.0180481 5.50724
RightShoulder  -0.0940387 -7.40128 -6.85399
RightArm  -59.0407 69.7792 -17.299
RightForeArm  3.13375 39.5877 9.06919
RightHand  -7.66524 19.3073 -35.3263
LeftUpLeg  -32.2664 12.0647 16.7547
LeftLeg  123.985 -0.683022 0.450835
LeftFoot  -19.2098 -1.1676 -18.664
LeftToes  1.06244e-005 4.65856e-005 -8.18505e-006
